<svg width="712" height="197" viewBox="0 0 712 197" fill="none" xmlns="http://www.w3.org/2000/svg">
<g filter="url(#filter0_d)">
<path d="M76.468 151.628H48.08V45.972H76.468V23.788H39.996C28.904 23.788 23.452 27.924 23.452 39.204V158.396C23.452 169.676 28.904 173.812 39.996 173.812H76.468V151.628ZM156.58 39.204C156.58 28.112 150.94 23.788 140.224 23.788H107.324C96.2315 23.788 90.7795 28.864 90.7795 39.204V158.396C90.7795 169.488 96.7955 173.812 107.324 173.812H140.224C151.316 173.812 156.58 169.112 156.58 158.396V39.204ZM115.408 151.628V45.972H131.952V151.628H115.408ZM197.79 23.788H173.162V173.812H197.79V23.788ZM280.407 23.788H255.779V55.748H254.651L234.911 23.788H214.419V173.812H239.047V75.3H239.987L255.779 100.304V173.812H280.407V23.788Z" fill="#3D0019"/>
<path d="M76.468 151.628H79.468V148.628H76.468V151.628ZM48.08 151.628H45.08V154.628H48.08V151.628ZM48.08 45.972V42.972H45.08V45.972H48.08ZM76.468 45.972V48.972H79.468V45.972H76.468ZM76.468 23.788H79.468V20.788H76.468V23.788ZM76.468 173.812V176.812H79.468V173.812H76.468ZM76.468 148.628H48.08V154.628H76.468V148.628ZM51.08 151.628V45.972H45.08V151.628H51.08ZM48.08 48.972H76.468V42.972H48.08V48.972ZM79.468 45.972V23.788H73.468V45.972H79.468ZM76.468 20.788H39.996V26.788H76.468V20.788ZM39.996 20.788C34.1849 20.788 29.1413 21.8505 25.5714 25.0238C21.9208 28.2687 20.452 33.1319 20.452 39.204H26.452C26.452 33.9961 27.7092 31.1513 29.5576 29.5082C31.4867 27.7935 34.7151 26.788 39.996 26.788V20.788ZM20.452 39.204V158.396H26.452V39.204H20.452ZM20.452 158.396C20.452 164.468 21.9208 169.331 25.5714 172.576C29.1413 175.749 34.1849 176.812 39.996 176.812V170.812C34.7151 170.812 31.4867 169.807 29.5576 168.092C27.7092 166.449 26.452 163.604 26.452 158.396H20.452ZM39.996 176.812H76.468V170.812H39.996V176.812ZM79.468 173.812V151.628H73.468V173.812H79.468ZM115.408 151.628H112.408V154.628H115.408V151.628ZM115.408 45.972V42.972H112.408V45.972H115.408ZM131.952 45.972H134.952V42.972H131.952V45.972ZM131.952 151.628V154.628H134.952V151.628H131.952ZM159.58 39.204C159.58 33.1836 158.042 28.3513 154.424 25.1038C150.874 21.9181 145.898 20.788 140.224 20.788V26.788C145.265 26.788 148.467 27.8199 150.416 29.5692C152.297 31.2567 153.58 34.1324 153.58 39.204H159.58ZM140.224 20.788H107.324V26.788H140.224V20.788ZM107.324 20.788C101.379 20.788 96.3686 22.1427 92.8471 25.4235C89.2843 28.7426 87.7795 33.5291 87.7795 39.204H93.7795C93.7795 34.5389 95.0007 31.6174 96.9369 29.8135C98.9144 27.9713 102.176 26.788 107.324 26.788V20.788ZM87.7795 39.204V158.396H93.7795V39.204H87.7795ZM87.7795 158.396C87.7795 164.471 89.4408 169.295 93.128 172.521C96.7335 175.676 101.729 176.812 107.324 176.812V170.812C102.39 170.812 99.1135 169.786 97.079 168.006C95.1262 166.297 93.7795 163.413 93.7795 158.396H87.7795ZM107.324 176.812H140.224V170.812H107.324V176.812ZM140.224 176.812C146.114 176.812 151.104 175.576 154.605 172.319C158.151 169.019 159.58 164.202 159.58 158.396H153.58C153.58 163.306 152.376 166.197 150.517 167.926C148.613 169.698 145.425 170.812 140.224 170.812V176.812ZM159.58 158.396V39.204H153.58V158.396H159.58ZM118.408 151.628V45.972H112.408V151.628H118.408ZM115.408 48.972H131.952V42.972H115.408V48.972ZM128.952 45.972V151.628H134.952V45.972H128.952ZM131.952 148.628H115.408V154.628H131.952V148.628ZM197.79 23.788H200.79V20.788H197.79V23.788ZM173.162 23.788V20.788H170.162V23.788H173.162ZM173.162 173.812H170.162V176.812H173.162V173.812ZM197.79 173.812V176.812H200.79V173.812H197.79ZM197.79 20.788H173.162V26.788H197.79V20.788ZM170.162 23.788V173.812H176.162V23.788H170.162ZM173.162 176.812H197.79V170.812H173.162V176.812ZM200.79 173.812V23.788H194.79V173.812H200.79ZM280.407 23.788H283.407V20.788H280.407V23.788ZM255.779 23.788V20.788H252.779V23.788H255.779ZM255.779 55.748V58.748H258.779V55.748H255.779ZM254.651 55.748L252.098 57.3245L252.978 58.748H254.651V55.748ZM234.911 23.788L237.463 22.2115L236.584 20.788H234.911V23.788ZM214.419 23.788V20.788H211.419V23.788H214.419ZM214.419 173.812H211.419V176.812H214.419V173.812ZM239.047 173.812V176.812H242.047V173.812H239.047ZM239.047 75.3V72.3H236.047V75.3H239.047ZM239.987 75.3L242.523 73.698L241.64 72.3H239.987V75.3ZM255.779 100.304H258.779V99.4359L258.315 98.702L255.779 100.304ZM255.779 173.812H252.779V176.812H255.779V173.812ZM280.407 173.812V176.812H283.407V173.812H280.407ZM280.407 20.788H255.779V26.788H280.407V20.788ZM252.779 23.788V55.748H258.779V23.788H252.779ZM255.779 52.748H254.651V58.748H255.779V52.748ZM257.203 54.1715L237.463 22.2115L232.358 25.3645L252.098 57.3245L257.203 54.1715ZM234.911 20.788H214.419V26.788H234.911V20.788ZM211.419 23.788V173.812H217.419V23.788H211.419ZM214.419 176.812H239.047V170.812H214.419V176.812ZM242.047 173.812V75.3H236.047V173.812H242.047ZM239.047 78.3H239.987V72.3H239.047V78.3ZM237.45 76.902L253.242 101.906L258.315 98.702L242.523 73.698L237.45 76.902ZM252.779 100.304V173.812H258.779V100.304H252.779ZM255.779 176.812H280.407V170.812H255.779V176.812ZM283.407 173.812V23.788H277.407V173.812H283.407Z" fill="url(#paint0_linear)"/>
</g>
<path d="M322.08 88.836H319.08V91.836H322.08V88.836ZM322.08 45.972V42.972H319.08V45.972H322.08ZM355.732 45.972V48.972H358.732V45.972H355.732ZM355.732 23.788H358.732V20.788H355.732V23.788ZM334.676 110.644H337.676V107.644H334.676V110.644ZM334.676 151.628V154.628H337.676V151.628H334.676ZM297.452 151.628V148.628H294.452V151.628H297.452ZM297.452 173.812H294.452V176.812H297.452V173.812ZM362.304 105.944C362.304 100.101 361.182 94.9512 357.972 91.2615C354.684 87.4821 349.747 85.836 343.512 85.836V91.836C348.745 91.836 351.704 93.1979 353.445 95.1995C355.264 97.2907 356.304 100.695 356.304 105.944H362.304ZM343.512 85.836H322.08V91.836H343.512V85.836ZM325.08 88.836V45.972H319.08V88.836H325.08ZM322.08 48.972H355.732V42.972H322.08V48.972ZM358.732 45.972V23.788H352.732V45.972H358.732ZM355.732 20.788H314.372V26.788H355.732V20.788ZM314.372 20.788C308.505 20.788 303.387 21.9672 299.745 25.2485C296.036 28.5895 294.452 33.5599 294.452 39.768H300.452C300.452 34.5081 301.782 31.4885 303.76 29.7065C305.805 27.8648 309.147 26.788 314.372 26.788V20.788ZM294.452 39.768V93.724H300.452V39.768H294.452ZM294.452 93.724C294.452 99.565 295.574 104.682 298.8 108.331C302.098 112.06 307.036 113.644 313.244 113.644V107.644C307.984 107.644 305.026 106.314 303.295 104.356C301.492 102.318 300.452 98.9749 300.452 93.724H294.452ZM313.244 113.644H334.676V107.644H313.244V113.644ZM331.676 110.644V151.628H337.676V110.644H331.676ZM334.676 148.628H297.452V154.628H334.676V148.628ZM294.452 151.628V173.812H300.452V151.628H294.452ZM297.452 176.812H342.572V170.812H297.452V176.812ZM342.572 176.812C348.304 176.812 353.366 175.743 356.992 172.601C360.712 169.377 362.304 164.524 362.304 158.396H356.304C356.304 163.548 354.982 166.403 353.062 168.067C351.048 169.813 347.744 170.812 342.572 170.812V176.812ZM362.304 158.396V105.944H356.304V158.396H362.304ZM441.219 23.788H444.219V20.788H441.219V23.788ZM373.539 23.788V20.788H370.539V23.788H373.539ZM373.539 45.972H370.539V48.972H373.539V45.972ZM394.971 45.972H397.971V42.972H394.971V45.972ZM394.971 173.812H391.971V176.812H394.971V173.812ZM419.599 173.812V176.812H422.599V173.812H419.599ZM419.599 45.972V42.972H416.599V45.972H419.599ZM441.219 45.972V48.972H444.219V45.972H441.219ZM441.219 20.788H373.539V26.788H441.219V20.788ZM370.539 23.788V45.972H376.539V23.788H370.539ZM373.539 48.972H394.971V42.972H373.539V48.972ZM391.971 45.972V173.812H397.971V45.972H391.971ZM394.971 176.812H419.599V170.812H394.971V176.812ZM422.599 173.812V45.972H416.599V173.812H422.599ZM419.599 48.972H441.219V42.972H419.599V48.972ZM444.219 45.972V23.788H438.219V45.972H444.219ZM480.051 151.628H477.051V154.628H480.051V151.628ZM480.051 45.972V42.972H477.051V45.972H480.051ZM496.595 45.972H499.595V42.972H496.595V45.972ZM496.595 151.628V154.628H499.595V151.628H496.595ZM524.223 39.204C524.223 33.1836 522.686 28.3513 519.068 25.1038C515.518 21.9181 510.541 20.788 504.867 20.788V26.788C509.909 26.788 513.111 27.8199 515.06 29.5692C516.941 31.2567 518.223 34.1324 518.223 39.204H524.223ZM504.867 20.788H471.967V26.788H504.867V20.788ZM471.967 20.788C466.022 20.788 461.013 22.1427 457.491 25.4235C453.928 28.7426 452.423 33.5291 452.423 39.204H458.423C458.423 34.5389 459.645 31.6174 461.581 29.8135C463.558 27.9713 466.82 26.788 471.967 26.788V20.788ZM452.423 39.204V158.396H458.423V39.204H452.423ZM452.423 158.396C452.423 164.471 454.085 169.295 457.772 172.521C461.377 175.676 466.373 176.812 471.967 176.812V170.812C467.034 170.812 463.757 169.786 461.723 168.006C459.77 166.297 458.423 163.413 458.423 158.396H452.423ZM471.967 176.812H504.867V170.812H471.967V176.812ZM504.867 176.812C510.758 176.812 515.748 175.576 519.248 172.319C522.795 169.019 524.223 164.202 524.223 158.396H518.223C518.223 163.306 517.02 166.197 515.161 167.926C513.257 169.698 510.069 170.812 504.867 170.812V176.812ZM524.223 158.396V39.204H518.223V158.396H524.223ZM483.051 151.628V45.972H477.051V151.628H483.051ZM480.051 48.972H496.595V42.972H480.051V48.972ZM493.595 45.972V151.628H499.595V45.972H493.595ZM496.595 148.628H480.051V154.628H496.595V148.628ZM594.582 108.012H591.582V110.718L594.273 110.996L594.582 108.012ZM594.582 107.448L593.72 104.575L591.582 105.216V107.448H594.582ZM537.806 23.788V20.788H534.806V23.788H537.806ZM537.806 173.812H534.806V176.812H537.806V173.812ZM562.434 173.812V176.812H565.434V173.812H562.434ZM562.434 118.54V115.54H559.434V118.54H562.434ZM578.978 118.54H581.978V115.54H578.978V118.54ZM578.978 173.812H575.978V176.812H578.978V173.812ZM603.606 173.812V176.812H606.606V173.812H603.606ZM562.434 96.544H559.434V99.544H562.434V96.544ZM562.434 45.972V42.972H559.434V45.972H562.434ZM578.978 45.972H581.978V42.972H578.978V45.972ZM578.978 96.544V99.544H581.978V96.544H578.978ZM606.606 119.292C606.606 115.159 605.596 111.7 603.414 109.159C601.214 106.598 598.163 105.366 594.89 105.028L594.273 110.996C596.452 111.221 597.913 111.964 598.862 113.069C599.829 114.194 600.606 116.093 600.606 119.292H606.606ZM597.582 108.012V107.448H591.582V108.012H597.582ZM595.444 110.321C598.614 109.37 601.504 107.839 603.568 105.212C605.647 102.566 606.606 99.1695 606.606 95.04H600.606C600.606 98.2425 599.873 100.204 598.85 101.506C597.812 102.827 596.189 103.834 593.72 104.575L595.444 110.321ZM606.606 95.04V39.768H600.606V95.04H606.606ZM606.606 39.768C606.606 33.5599 605.022 28.5895 601.313 25.2485C597.67 21.9672 592.553 20.788 586.686 20.788V26.788C591.911 26.788 595.253 27.8648 597.297 29.7065C599.275 31.4885 600.606 34.5081 600.606 39.768H606.606ZM586.686 20.788H537.806V26.788H586.686V20.788ZM534.806 23.788V173.812H540.806V23.788H534.806ZM537.806 176.812H562.434V170.812H537.806V176.812ZM565.434 173.812V118.54H559.434V173.812H565.434ZM562.434 121.54H578.978V115.54H562.434V121.54ZM575.978 118.54V173.812H581.978V118.54H575.978ZM578.978 176.812H603.606V170.812H578.978V176.812ZM606.606 173.812V119.292H600.606V173.812H606.606ZM565.434 96.544V45.972H559.434V96.544H565.434ZM562.434 48.972H578.978V42.972H562.434V48.972ZM575.978 45.972V96.544H581.978V45.972H575.978ZM578.978 93.544H562.434V99.544H578.978V93.544ZM686.176 23.788H689.176V20.788H686.176V23.788ZM661.548 23.788V20.788H658.548V23.788H661.548ZM661.548 92.784V95.784H664.548V92.784H661.548ZM644.816 92.784H641.816V95.784H644.816V92.784ZM644.816 23.788H647.816V20.788H644.816V23.788ZM620.188 23.788V20.788H617.188V23.788H620.188ZM641.056 114.592H644.056V111.592H641.056V114.592ZM641.056 173.812H638.056V176.812H641.056V173.812ZM665.684 173.812V176.812H668.684V173.812H665.684ZM665.684 114.592V111.592H662.684V114.592H665.684ZM686.176 20.788H661.548V26.788H686.176V20.788ZM658.548 23.788V92.784H664.548V23.788H658.548ZM661.548 89.784H644.816V95.784H661.548V89.784ZM647.816 92.784V23.788H641.816V92.784H647.816ZM644.816 20.788H620.188V26.788H644.816V20.788ZM617.188 23.788V99.176H623.188V23.788H617.188ZM617.188 99.176C617.188 105.383 618.773 110.259 622.544 113.469C626.204 116.585 631.319 117.592 637.108 117.592V111.592C631.805 111.592 628.46 110.625 626.433 108.9C624.517 107.269 623.188 104.437 623.188 99.176H617.188ZM637.108 117.592H641.056V111.592H637.108V117.592ZM638.056 114.592V173.812H644.056V114.592H638.056ZM641.056 176.812H665.684V170.812H641.056V176.812ZM668.684 173.812V114.592H662.684V173.812H668.684ZM665.684 117.592H669.068V111.592H665.684V117.592ZM669.068 117.592C674.859 117.592 680.007 116.583 683.707 113.485C687.528 110.285 689.176 105.411 689.176 99.176H683.176C683.176 104.409 681.815 107.243 679.855 108.884C677.775 110.627 674.369 111.592 669.068 111.592V117.592ZM689.176 99.176V23.788H683.176V99.176H689.176Z" fill="white"/>
<defs>
<filter id="filter0_d" x="0.451996" y="0.787994" width="302.955" height="196.024" filterUnits="userSpaceOnUse" color-interpolation-filters="sRGB">
<feFlood flood-opacity="0" result="BackgroundImageFix"/>
<feColorMatrix in="SourceAlpha" type="matrix" values="0 0 0 0 0 0 0 0 0 0 0 0 0 0 0 0 0 0 127 0"/>
<feOffset/>
<feGaussianBlur stdDeviation="10"/>
<feColorMatrix type="matrix" values="0 0 0 0 1 0 0 0 0 0 0 0 0 0 0.417086 0 0 0 0.6 0"/>
<feBlend mode="normal" in2="BackgroundImageFix" result="effect1_dropShadow"/>
<feBlend mode="normal" in="SourceGraphic" in2="effect1_dropShadow" result="shape"/>
</filter>
<linearGradient id="paint0_linear" x1="3.00001" y1="-16.5" x2="330.594" y2="185.178" gradientUnits="userSpaceOnUse">
<stop stop-color="#FF003D"/>
<stop offset="1" stop-color="#FF00A8"/>
</linearGradient>
</defs>
</svg>
